<?xml version="1.0" encoding="UTF-8" standalone="no"?>
<!DOCTYPE svg PUBLIC "-//W3C//DTD SVG 1.1//EN" "http://www.w3.org/Graphics/SVG/1.1/DTD/svg11.dtd">
<svg xmlns="http://www.w3.org/2000/svg" version="1.1" viewBox="0.00 0.00 225.00 225.00">
<g stroke-width="2.00" fill="none" stroke-linecap="butt">
<path stroke="#808080" vector-effect="non-scaling-stroke" d="
  M 224.74 112.49
  A 112.23 112.23 0.0 0 0 112.51 0.26
  A 112.23 112.23 0.0 0 0 0.28 112.49
  A 112.23 112.23 0.0 0 0 112.51 224.72
  A 112.23 112.23 0.0 0 0 224.74 112.49"
/>
<path stroke="#808080" vector-effect="non-scaling-stroke" d="
  M 102.16 126.82
  A 0.34 0.34 0.0 0 1 102.68 126.85
  L 140.54 177.49
  A 0.34 0.34 0.0 0 0 140.81 177.63
  L 181.48 177.64
  A 0.34 0.34 0.0 0 0 181.75 177.10
  L 125.54 101.98
  A 0.34 0.34 0.0 0 1 125.56 101.54
  L 175.23 47.88
  A 0.34 0.34 0.0 0 0 174.98 47.31
  L 163.58 47.36
  A 0.34 0.34 0.0 0 0 163.33 47.47
  L 120.18 94.12
  A 0.34 0.34 0.0 0 1 119.66 94.09
  L 84.79 47.50
  A 0.34 0.34 0.0 0 0 84.52 47.36
  L 43.88 47.33
  A 0.34 0.34 0.0 0 0 43.61 47.87
  L 96.78 118.97
  A 0.34 0.34 0.0 0 1 96.76 119.41
  L 43.38 177.08
  A 0.34 0.34 0.0 0 0 43.63 177.65
  L 54.97 177.63
  A 0.34 0.34 0.0 0 0 55.22 177.52
  L 102.16 126.82"
/>
<path stroke="#808080" vector-effect="non-scaling-stroke" d="
  M 80.34 56.58
  A 0.31 0.31 0.0 0 0 80.10 56.46
  L 61.89 56.43
  A 0.31 0.31 0.0 0 0 61.64 56.93
  L 145.05 168.41
  A 0.31 0.31 0.0 0 0 145.29 168.53
  L 163.48 168.57
  A 0.31 0.31 0.0 0 0 163.73 168.07
  L 80.34 56.58"
/>
</g>
<path fill="#ffffff" d="
  M 0.00 0.00
  L 225.00 0.00
  L 225.00 225.00
  L 0.00 225.00
  L 0.00 0.00
  Z
  M 224.74 112.49
  A 112.23 112.23 0.0 0 0 112.51 0.26
  A 112.23 112.23 0.0 0 0 0.28 112.49
  A 112.23 112.23 0.0 0 0 112.51 224.72
  A 112.23 112.23 0.0 0 0 224.74 112.49
  Z"
/>
<path fill="#000000" d="
  M 224.74 112.49
  A 112.23 112.23 0.0 0 1 112.51 224.72
  A 112.23 112.23 0.0 0 1 0.28 112.49
  A 112.23 112.23 0.0 0 1 112.51 0.26
  A 112.23 112.23 0.0 0 1 224.74 112.49
  Z
  M 102.16 126.82
  A 0.34 0.34 0.0 0 1 102.68 126.85
  L 140.54 177.49
  A 0.34 0.34 0.0 0 0 140.81 177.63
  L 181.48 177.64
  A 0.34 0.34 0.0 0 0 181.75 177.10
  L 125.54 101.98
  A 0.34 0.34 0.0 0 1 125.56 101.54
  L 175.23 47.88
  A 0.34 0.34 0.0 0 0 174.98 47.31
  L 163.58 47.36
  A 0.34 0.34 0.0 0 0 163.33 47.47
  L 120.18 94.12
  A 0.34 0.34 0.0 0 1 119.66 94.09
  L 84.79 47.50
  A 0.34 0.34 0.0 0 0 84.52 47.36
  L 43.88 47.33
  A 0.34 0.34 0.0 0 0 43.61 47.87
  L 96.78 118.97
  A 0.34 0.34 0.0 0 1 96.76 119.41
  L 43.38 177.08
  A 0.34 0.34 0.0 0 0 43.63 177.65
  L 54.97 177.63
  A 0.34 0.34 0.0 0 0 55.22 177.52
  L 102.16 126.82
  Z"
/>
<path fill="#ffffff" d="
  M 102.16 126.82
  L 55.22 177.52
  A 0.34 0.34 0.0 0 1 54.97 177.63
  L 43.63 177.65
  A 0.34 0.34 0.0 0 1 43.38 177.08
  L 96.76 119.41
  A 0.34 0.34 0.0 0 0 96.78 118.97
  L 43.61 47.87
  A 0.34 0.34 0.0 0 1 43.88 47.33
  L 84.52 47.36
  A 0.34 0.34 0.0 0 1 84.79 47.50
  L 119.66 94.09
  A 0.34 0.34 0.0 0 0 120.18 94.12
  L 163.33 47.47
  A 0.34 0.34 0.0 0 1 163.58 47.36
  L 174.98 47.31
  A 0.34 0.34 0.0 0 1 175.23 47.88
  L 125.56 101.54
  A 0.34 0.34 0.0 0 0 125.54 101.98
  L 181.75 177.10
  A 0.34 0.34 0.0 0 1 181.48 177.64
  L 140.81 177.63
  A 0.34 0.34 0.0 0 1 140.54 177.49
  L 102.68 126.85
  A 0.34 0.34 0.0 0 0 102.16 126.82
  Z
  M 80.34 56.58
  A 0.31 0.31 0.0 0 0 80.10 56.46
  L 61.89 56.43
  A 0.31 0.31 0.0 0 0 61.64 56.93
  L 145.05 168.41
  A 0.31 0.31 0.0 0 0 145.29 168.53
  L 163.48 168.57
  A 0.31 0.31 0.0 0 0 163.73 168.07
  L 80.34 56.58
  Z"
/>
<path fill="#000000" d="
  M 80.34 56.58
  L 163.73 168.07
  A 0.31 0.31 0.0 0 1 163.48 168.57
  L 145.29 168.53
  A 0.31 0.31 0.0 0 1 145.05 168.41
  L 61.64 56.93
  A 0.31 0.31 0.0 0 1 61.89 56.43
  L 80.10 56.46
  A 0.31 0.31 0.0 0 1 80.34 56.58
  Z"
/>
</svg>
